<svg width="56" height="47" viewBox="0 0 56 47" fill="none" xmlns="http://www.w3.org/2000/svg">
<path d="M55 0.487671H1C0.734784 0.487671 0.48043 0.593028 0.292893 0.780564C0.105357 0.968101 0 1.22245 0 1.48767V29.4877C0 29.7529 0.105357 30.0072 0.292893 30.1948C0.48043 30.3823 0.734784 30.4877 1 30.4877H27V38.4877H20C19.7348 38.4877 19.4804 38.593 19.2929 38.7806C19.1054 38.9681 19 39.2225 19 39.4877V40.4877H3.4141L5.707 38.1947C5.88916 38.0061 5.98995 37.7535 5.98767 37.4913C5.9854 37.2291 5.88023 36.9783 5.69482 36.7929C5.50941 36.6074 5.2586 36.5023 4.9964 36.5C4.7342 36.4977 4.4816 36.5985 4.293 36.7807L0.2943 40.7794C0.106744 40.9674 0.00141382 41.2221 0.00141382 41.4877C0.00141382 41.7532 0.106744 42.008 0.2943 42.196L4.293 46.1947C4.4816 46.3768 4.7342 46.4776 4.9964 46.4753C5.2586 46.4731 5.50941 46.3679 5.69482 46.1825C5.88023 45.9971 5.9854 45.7463 5.98767 45.4841C5.98995 45.2219 5.88916 44.9693 5.707 44.7807L3.4141 42.4877H19V43.4877C19 43.7529 19.1054 44.0072 19.2929 44.1948C19.4804 44.3823 19.7348 44.4877 20 44.4877H36C36.2652 44.4877 36.5196 44.3823 36.7071 44.1948C36.8946 44.0072 37 43.7529 37 43.4877V42.4877H52.5859L50.293 44.7807C50.1975 44.8729 50.1213 44.9833 50.0689 45.1053C50.0165 45.2273 49.9889 45.3585 49.9878 45.4913C49.9866 45.624 50.0119 45.7557 50.0622 45.8786C50.1125 46.0015 50.1867 46.1132 50.2806 46.2071C50.3745 46.301 50.4861 46.3752 50.609 46.4255C50.7319 46.4758 50.8636 46.5011 50.9964 46.4999C51.1292 46.4988 51.2604 46.4712 51.3824 46.4188C51.5044 46.3664 51.6148 46.2902 51.707 46.1947L55.7057 42.196C55.8932 42.0079 55.9985 41.7532 55.9985 41.4877C55.9985 41.2221 55.8932 40.9674 55.7057 40.7794L51.707 36.7807C51.5184 36.5985 51.2658 36.4977 51.0036 36.5C50.7414 36.5023 50.4906 36.6074 50.3052 36.7929C50.1198 36.9783 50.0146 37.2291 50.0123 37.4913C50.01 37.7535 50.1108 38.0061 50.293 38.1947L52.5859 40.4877H37V39.4877C37 39.2225 36.8946 38.9681 36.7071 38.7806C36.5196 38.593 36.2652 38.4877 36 38.4877H29V30.4877H55C55.2652 30.4877 55.5196 30.3823 55.7071 30.1948C55.8946 30.0072 56 29.7529 56 29.4877V1.48767C56 1.22245 55.8946 0.968101 55.7071 0.780564C55.5196 0.593028 55.2652 0.487671 55 0.487671ZM35 42.4877H21V40.4877H35V42.4877ZM2 2.48767H54V14.4877H2V2.48767ZM54 28.4877H2V16.4877H54V28.4877ZM41 4.48767H29C28.7348 4.48767 28.4804 4.59303 28.2929 4.78056C28.1054 4.9681 28 5.22245 28 5.48767V11.4877C28 11.7529 28.1054 12.0072 28.2929 12.1948C28.4804 12.3823 28.7348 12.4877 29 12.4877H41C41.2652 12.4877 41.5196 12.3823 41.7071 12.1948C41.8946 12.0072 42 11.7529 42 11.4877V5.48767C42 5.22245 41.8946 4.9681 41.7071 4.78056C41.5196 4.59303 41.2652 4.48767 41 4.48767ZM40 10.4877H30V6.48767H40V10.4877ZM51 4.48767H45C44.7348 4.48767 44.4804 4.59303 44.2929 4.78056C44.1054 4.9681 44 5.22245 44 5.48767V11.4877C44 11.7529 44.1054 12.0072 44.2929 12.1948C44.4804 12.3823 44.7348 12.4877 45 12.4877H51C51.2652 12.4877 51.5196 12.3823 51.7071 12.1948C51.8946 12.0072 52 11.7529 52 11.4877V5.48767C52 5.22245 51.8946 4.9681 51.7071 4.78056C51.5196 4.59303 51.2652 4.48767 51 4.48767ZM50 10.4877H46V6.48767H50V10.4877ZM6 5.48767V11.4877C6 11.7529 5.89464 12.0072 5.70711 12.1948C5.51957 12.3823 5.26522 12.4877 5 12.4877C4.73478 12.4877 4.48043 12.3823 4.29289 12.1948C4.10536 12.0072 4 11.7529 4 11.4877V5.48767C4 5.22245 4.10536 4.9681 4.29289 4.78056C4.48043 4.59303 4.73478 4.48767 5 4.48767C5.26522 4.48767 5.51957 4.59303 5.70711 4.78056C5.89464 4.9681 6 5.22245 6 5.48767ZM10 5.48767V11.4877C10 11.7529 9.89464 12.0072 9.70711 12.1948C9.51957 12.3823 9.26522 12.4877 9 12.4877C8.73478 12.4877 8.48043 12.3823 8.29289 12.1948C8.10536 12.0072 8 11.7529 8 11.4877V5.48767C8 5.22245 8.10536 4.9681 8.29289 4.78056C8.48043 4.59303 8.73478 4.48767 9 4.48767C9.26522 4.48767 9.51957 4.59303 9.70711 4.78056C9.89464 4.9681 10 5.22245 10 5.48767ZM14 5.48767V11.4877C14 11.7529 13.8946 12.0072 13.7071 12.1948C13.5196 12.3823 13.2652 12.4877 13 12.4877C12.7348 12.4877 12.4804 12.3823 12.2929 12.1948C12.1054 12.0072 12 11.7529 12 11.4877V5.48767C12 5.22245 12.1054 4.9681 12.2929 4.78056C12.4804 4.59303 12.7348 4.48767 13 4.48767C13.2652 4.48767 13.5196 4.59303 13.7071 4.78056C13.8946 4.9681 14 5.22245 14 5.48767ZM29 26.4877H41C41.2652 26.4877 41.5196 26.3823 41.7071 26.1948C41.8946 26.0072 42 25.7529 42 25.4877V19.4877C42 19.2225 41.8946 18.9681 41.7071 18.7806C41.5196 18.593 41.2652 18.4877 41 18.4877H29C28.7348 18.4877 28.4804 18.593 28.2929 18.7806C28.1054 18.9681 28 19.2225 28 19.4877V25.4877C28 25.7529 28.1054 26.0072 28.2929 26.1948C28.4804 26.3823 28.7348 26.4877 29 26.4877ZM30 20.4877H40V24.4877H30V20.4877ZM45 26.4877H51C51.2652 26.4877 51.5196 26.3823 51.7071 26.1948C51.8946 26.0072 52 25.7529 52 25.4877V19.4877C52 19.2225 51.8946 18.9681 51.7071 18.7806C51.5196 18.593 51.2652 18.4877 51 18.4877H45C44.7348 18.4877 44.4804 18.593 44.2929 18.7806C44.1054 18.9681 44 19.2225 44 19.4877V25.4877C44 25.7529 44.1054 26.0072 44.2929 26.1948C44.4804 26.3823 44.7348 26.4877 45 26.4877ZM46 20.4877H50V24.4877H46V20.4877ZM4 25.4877V19.4877C4 19.2225 4.10536 18.9681 4.29289 18.7806C4.48043 18.593 4.73478 18.4877 5 18.4877C5.26522 18.4877 5.51957 18.593 5.70711 18.7806C5.89464 18.9681 6 19.2225 6 19.4877V25.4877C6 25.7529 5.89464 26.0072 5.70711 26.1948C5.51957 26.3823 5.26522 26.4877 5 26.4877C4.73478 26.4877 4.48043 26.3823 4.29289 26.1948C4.10536 26.0072 4 25.7529 4 25.4877ZM8 25.4877V19.4877C8 19.2225 8.10536 18.9681 8.29289 18.7806C8.48043 18.593 8.73478 18.4877 9 18.4877C9.26522 18.4877 9.51957 18.593 9.70711 18.7806C9.89464 18.9681 10 19.2225 10 19.4877V25.4877C10 25.7529 9.89464 26.0072 9.70711 26.1948C9.51957 26.3823 9.26522 26.4877 9 26.4877C8.73478 26.4877 8.48043 26.3823 8.29289 26.1948C8.10536 26.0072 8 25.7529 8 25.4877ZM12 25.4877V19.4877C12 19.2225 12.1054 18.9681 12.2929 18.7806C12.4804 18.593 12.7348 18.4877 13 18.4877C13.2652 18.4877 13.5196 18.593 13.7071 18.7806C13.8946 18.9681 14 19.2225 14 19.4877V25.4877C14 25.7529 13.8946 26.0072 13.7071 26.1948C13.5196 26.3823 13.2652 26.4877 13 26.4877C12.7348 26.4877 12.4804 26.3823 12.2929 26.1948C12.1054 26.0072 12 25.7529 12 25.4877Z" fill="white"/>
</svg>
