<svg width="56" height="57" viewBox="0 0 56 57" fill="none" xmlns="http://www.w3.org/2000/svg">
<path d="M28 11.5C24.6377 11.5 21.3509 12.497 18.5553 14.365C15.7597 16.233 13.5807 18.888 12.294 21.9944C11.0074 25.1007 10.6707 28.5189 11.3267 31.8165C11.9826 35.1142 13.6017 38.1433 15.9792 40.5208C18.3567 42.8983 21.3858 44.5174 24.6835 45.1734C27.9811 45.8293 31.3993 45.4926 34.5056 44.206C37.612 42.9193 40.267 40.7403 42.135 37.9447C44.003 35.1491 45 31.8623 45 28.5C44.995 23.9929 43.2023 19.6718 40.0153 16.4847C36.8282 13.2977 32.5071 11.505 28 11.5ZM28 43.5C25.0333 43.5 22.1332 42.6203 19.6664 40.972C17.1997 39.3238 15.2771 36.9811 14.1418 34.2402C13.0065 31.4994 12.7094 28.4834 13.2882 25.5736C13.867 22.6639 15.2956 19.9912 17.3934 17.8934C19.4912 15.7956 22.1639 14.367 25.0736 13.7882C27.9834 13.2094 30.9994 13.5065 33.7402 14.6418C36.4811 15.7771 38.8238 17.6997 40.472 20.1664C42.1203 22.6332 43 25.5333 43 28.5C42.9955 32.4769 41.4137 36.2896 38.6016 39.1016C35.7896 41.9137 31.9769 43.4955 28 43.5ZM55.124 24.5078L51.59 24.0659C51.3645 22.8706 51.0483 21.6942 50.6442 20.5469L53.4865 18.3955C53.6809 18.2484 53.8149 18.0354 53.8632 17.7965C53.9116 17.5576 53.8711 17.3092 53.7492 17.0981L50.7492 11.9019C50.6273 11.6908 50.4325 11.5314 50.2015 11.4538C49.9704 11.3762 49.7189 11.3857 49.4943 11.4805L46.2053 12.8682C45.4135 11.947 44.5532 11.0867 43.632 10.2949L45.0197 7.0059C45.1143 6.78129 45.1237 6.52987 45.0461 6.29883C44.9685 6.06778 44.8093 5.87299 44.5983 5.751L39.4021 2.751C39.191 2.62926 38.9426 2.58878 38.7038 2.63715C38.4649 2.68552 38.2519 2.81941 38.1047 3.0137L35.9531 5.856C34.8058 5.45189 33.6294 5.13572 32.4341 4.9102L31.9922 1.376C31.962 1.13415 31.8445 0.91167 31.6618 0.75036C31.4791 0.589051 31.2437 0.50002 31 0.5H25C24.7563 0.50002 24.5209 0.589051 24.3382 0.75036C24.1555 0.91167 24.038 1.13415 24.0078 1.376L23.5659 4.91C22.3706 5.13551 21.1942 5.45169 20.0469 5.8558L17.8955 3.0137C17.7483 2.81943 17.5353 2.68555 17.2964 2.63718C17.0576 2.58881 16.8093 2.62929 16.5981 2.751L11.4019 5.751C11.1909 5.87299 11.0317 6.06778 10.9541 6.29883C10.8765 6.52987 10.8859 6.78129 10.9805 7.0059L12.3682 10.2949C11.447 11.0867 10.5867 11.947 9.7949 12.8682L6.5059 11.4805C6.28131 11.3857 6.02983 11.3762 5.79874 11.4538C5.56765 11.5314 5.37286 11.6908 5.251 11.9019L2.251 17.0981C2.12913 17.3092 2.08858 17.5576 2.13695 17.7965C2.18533 18.0354 2.31931 18.2484 2.5137 18.3955L5.356 20.5469C4.95189 21.6942 4.63572 22.8706 4.4102 24.0659L0.876 24.5078C0.634154 24.538 0.41167 24.6555 0.25036 24.8382C0.0890505 25.0209 2.00388e-05 25.2563 0 25.5V31.5C2.00388e-05 31.7437 0.0890505 31.9791 0.25036 32.1618C0.41167 32.3445 0.634154 32.462 0.876 32.4922L4.4102 32.9341C4.63572 34.1294 4.95189 35.3058 5.356 36.4531L2.5137 38.6045C2.31931 38.7516 2.18533 38.9646 2.13695 39.2035C2.08858 39.4424 2.12913 39.6908 2.251 39.9019L5.251 45.0981C5.37308 45.309 5.56788 45.4681 5.79889 45.5457C6.0299 45.6233 6.28127 45.614 6.5059 45.5195L9.7949 44.1318C10.5867 45.0531 11.4469 45.9133 12.3682 46.7051L10.9805 49.9941C10.8859 50.2187 10.8765 50.4701 10.9541 50.7012C11.0317 50.9322 11.1909 51.127 11.4019 51.249L16.5981 54.249C16.8093 54.3706 17.0576 54.411 17.2964 54.3627C17.5353 54.3143 17.7483 54.1805 17.8955 53.9863L20.0469 51.144C21.1942 51.5481 22.3706 51.8643 23.5659 52.0898L24.0078 55.624C24.038 55.8658 24.1555 56.0883 24.3382 56.2496C24.5209 56.4109 24.7563 56.5 25 56.5H31C31.2437 56.5 31.4791 56.4109 31.6618 56.2496C31.8445 56.0883 31.962 55.8658 31.9922 55.624L32.4341 52.0898C33.6294 51.8643 34.8058 51.5481 35.9531 51.144L38.1045 53.9863C38.2517 54.1805 38.4647 54.3143 38.7036 54.3627C38.9424 54.411 39.1907 54.3706 39.4019 54.249L44.5981 51.249C44.8091 51.127 44.9683 50.9322 45.0459 50.7012C45.1235 50.4701 45.1141 50.2187 45.0195 49.9941L43.6318 46.7051C44.5531 45.9133 45.4133 45.0531 46.2051 44.1318L49.4941 45.5195C49.7187 45.6141 49.9701 45.6235 50.2012 45.5459C50.4322 45.4683 50.627 45.3091 50.749 45.0981L53.749 39.9019C53.8709 39.6908 53.9114 39.4424 53.863 39.2035C53.8147 38.9646 53.6807 38.7516 53.4863 38.6045L50.644 36.4531C51.0481 35.3058 51.3643 34.1294 51.5898 32.9341L55.124 32.4922C55.3658 32.462 55.5883 32.3445 55.7496 32.1618C55.9109 31.9791 56 31.7437 56 31.5V25.5C56 25.2563 55.9109 25.0209 55.7496 24.8382C55.5883 24.6555 55.3658 24.538 55.124 24.5078ZM54 30.6172L50.6055 31.0415C50.3896 31.0684 50.1884 31.1649 50.0325 31.3165C49.8765 31.4681 49.7742 31.6665 49.7412 31.8815C49.4985 33.4412 49.0878 34.9701 48.5161 36.4415C48.4377 36.6442 48.4275 36.8668 48.4868 37.0758C48.5462 37.2848 48.672 37.4688 48.8452 37.6L51.5752 39.6664L49.458 43.3334L46.3 42.001C46.1 41.9164 45.8779 41.8993 45.6674 41.9522C45.4568 42.0052 45.2692 42.1253 45.133 42.2944C44.1423 43.5228 43.0234 44.642 41.7951 45.6328C41.6259 45.769 41.5056 45.9565 41.4526 46.1671C41.3995 46.3778 41.4165 46.5999 41.501 46.8L42.8335 49.9582L39.1665 52.0754L37.1 49.3452C36.969 49.1717 36.785 49.0456 36.5759 48.9862C36.3667 48.9268 36.1439 48.9373 35.9413 49.0161C34.4699 49.5878 32.941 49.9985 31.3813 50.2412C31.1663 50.2742 30.9679 50.3765 30.8163 50.5325C30.6647 50.6884 30.5682 50.8896 30.5413 51.1055L30.1172 54.5H25.8828L25.4585 51.1055C25.4316 50.8896 25.3351 50.6884 25.1835 50.5325C25.0319 50.3765 24.8335 50.2742 24.6185 50.2412C23.0588 49.9985 21.5299 49.5878 20.0585 49.0161C19.8558 48.938 19.6332 48.9279 19.4242 48.9872C19.2152 49.0466 19.0312 49.1722 18.8998 49.3452L16.8334 52.0752L13.1664 49.958L14.499 46.8C14.5835 46.6 14.6005 46.3779 14.5474 46.1673C14.4944 45.9567 14.3742 45.7692 14.2051 45.633C12.9768 44.6422 11.8579 43.523 10.8672 42.2946C10.731 42.1254 10.5434 42.0052 10.3328 41.9523C10.1222 41.8993 9.90002 41.9164 9.7 42.001L6.542 43.3335L4.4248 39.6665L7.1548 37.6001C7.32804 37.4689 7.45386 37.2849 7.51323 37.0758C7.57261 36.8668 7.56231 36.6441 7.4839 36.4414C6.91222 34.97 6.50146 33.4411 6.2588 31.8814C6.22579 31.6664 6.12353 31.468 5.96754 31.3164C5.81155 31.1648 5.61036 31.0683 5.3945 31.0414L2 30.6172V26.3828L5.3945 25.9585C5.61036 25.9316 5.81155 25.8351 5.96754 25.6835C6.12353 25.5319 6.22579 25.3335 6.2588 25.1185C6.50146 23.5588 6.91222 22.0299 7.4839 20.5585C7.56226 20.3559 7.57253 20.1332 7.51316 19.9242C7.45379 19.7152 7.328 19.5312 7.1548 19.4L4.4248 17.3336L6.542 13.6666L9.7 14.999C9.89999 15.0837 10.1222 15.1009 10.3328 15.0478C10.5434 14.9948 10.731 14.8745 10.867 14.7051C11.8578 13.477 12.9768 12.358 14.2049 11.3672C14.3741 11.231 14.4944 11.0435 14.5474 10.8329C14.6005 10.6222 14.5835 10.4001 14.499 10.2L13.1665 7.042L16.8335 4.9248L18.8999 7.6548C19.0313 7.82783 19.2153 7.95349 19.4243 8.01285C19.6333 8.0722 19.8559 8.06204 20.0586 7.9839C21.53 7.41222 23.0589 7.00146 24.6186 6.7588C24.8336 6.72579 25.032 6.62353 25.1836 6.46754C25.3352 6.31155 25.4317 6.11036 25.4586 5.8945L25.8828 2.5H30.1172L30.5415 5.8945C30.5684 6.11036 30.6649 6.31155 30.8165 6.46754C30.9681 6.62353 31.1665 6.72579 31.3815 6.7588C32.9412 7.00146 34.4701 7.41222 35.9415 7.9839C36.1441 8.06265 36.3669 8.07312 36.576 8.01372C36.7851 7.95432 36.9691 7.8283 37.1 7.6548L39.1664 4.9248L42.8334 7.042L41.501 10.2C41.4165 10.4 41.3995 10.6221 41.4526 10.8327C41.5056 11.0433 41.6258 11.2308 41.7949 11.367C43.023 12.3578 44.142 13.4768 45.1328 14.7049C45.2688 14.8743 45.4564 14.9946 45.667 15.0476C45.8776 15.1007 46.0998 15.0835 46.2998 14.9988L49.458 13.6663L51.5752 17.3333L48.8452 19.4C48.672 19.5312 48.5461 19.7152 48.4868 19.9243C48.4274 20.1333 48.4377 20.356 48.5161 20.5587C49.0878 22.0301 49.4985 23.559 49.7412 25.1187C49.7742 25.3337 49.8765 25.5321 50.0325 25.6837C50.1884 25.8353 50.3896 25.9318 50.6055 25.9587L54 26.3828V30.6172ZM23.6245 25.2808L19.6006 28.5L23.6245 31.7192C23.7298 31.8003 23.8179 31.9015 23.8837 32.017C23.9494 32.1325 23.9915 32.2599 24.0074 32.3919C24.0234 32.5238 24.0128 32.6576 23.9764 32.7854C23.9401 32.9132 23.8786 33.0325 23.7956 33.1363C23.7126 33.2401 23.6097 33.3263 23.493 33.3899C23.3763 33.4534 23.2481 33.4931 23.1159 33.5066C22.9836 33.52 22.8501 33.507 22.7229 33.4682C22.5958 33.4295 22.4777 33.3657 22.3755 33.2808L17.3755 29.2808C17.2584 29.1871 17.1639 29.0683 17.099 28.9331C17.034 28.798 17.0003 28.65 17.0003 28.5C17.0003 28.35 17.034 28.202 17.099 28.0669C17.1639 27.9317 17.2584 27.8129 17.3755 27.7192L22.3755 23.7192C22.4777 23.6343 22.5958 23.5705 22.7229 23.5318C22.8501 23.493 22.9836 23.48 23.1159 23.4934C23.2481 23.5069 23.3763 23.5466 23.493 23.6101C23.6097 23.6737 23.7126 23.7599 23.7956 23.8637C23.8786 23.9675 23.9401 24.0868 23.9764 24.2146C24.0128 24.3424 24.0234 24.4762 24.0074 24.6081C23.9915 24.7401 23.9494 24.8675 23.8837 24.983C23.8179 25.0985 23.7298 25.1997 23.6245 25.2808ZM33.6245 23.7192L38.6245 27.7192C38.7416 27.8129 38.8361 27.9317 38.901 28.0669C38.966 28.202 38.9997 28.35 38.9997 28.5C38.9997 28.65 38.966 28.798 38.901 28.9331C38.8361 29.0683 38.7416 29.1871 38.6245 29.2808L33.6245 33.2808C33.5223 33.3657 33.4042 33.4295 33.2771 33.4682C33.1499 33.507 33.0164 33.52 32.8841 33.5066C32.7519 33.4931 32.6237 33.4534 32.507 33.3899C32.3903 33.3263 32.2874 33.2401 32.2044 33.1363C32.1214 33.0325 32.0599 32.9132 32.0236 32.7854C31.9872 32.6576 31.9766 32.5238 31.9926 32.3919C32.0085 32.2599 32.0506 32.1325 32.1163 32.017C32.1821 31.9015 32.2702 31.8003 32.3755 31.7192L36.3994 28.5L32.3755 25.2808C32.174 25.1134 32.0463 24.8736 32.0198 24.6129C31.9932 24.3523 32.0701 24.0917 32.2337 23.8871C32.3973 23.6825 32.6347 23.5503 32.8948 23.5189C33.1549 23.4875 33.4169 23.5594 33.6245 23.7192ZM29.9805 23.6963L27.9805 33.6963C27.9352 33.9228 27.8128 34.1266 27.6343 34.2731C27.4557 34.4196 27.232 34.4998 27.001 34.5C26.9347 34.4998 26.8687 34.4931 26.8037 34.48C26.5437 34.4279 26.315 34.2747 26.1679 34.054C26.0208 33.8333 25.9675 33.5632 26.0195 33.3032L28.0195 23.3032C28.0736 23.0452 28.2275 22.819 28.4475 22.6739C28.6675 22.5287 28.936 22.4763 29.1945 22.5281C29.453 22.5798 29.6806 22.7315 29.8278 22.9502C29.975 23.1689 30.0298 23.4369 29.9805 23.6958V23.6963Z" fill="white"/>
</svg>
