<svg width="46" height="57" viewBox="0 0 46 57" fill="none" xmlns="http://www.w3.org/2000/svg">
<path d="M23 0.5C11.57 0.5 0 2.9043 0 7.5V49.5C0 54.0957 11.57 56.5 23 56.5C34.43 56.5 46 54.0957 46 49.5V7.5C46 2.9043 34.43 0.5 23 0.5ZM44 35.5C44 37.5391 35.8193 40.5 23 40.5C10.1807 40.5 2 37.5391 2 35.5V24.5413C5.7966 27.1505 14.4374 28.5 23 28.5C31.5626 28.5 40.2034 27.1505 44 24.5413V35.5ZM44 21.5C44 23.5391 35.8193 26.5 23 26.5C10.1807 26.5 2 23.5391 2 21.5V10.5413C5.7966 13.1505 14.4374 14.5 23 14.5C31.5626 14.5 40.2034 13.1505 44 10.5413V21.5ZM23 2.5C35.8193 2.5 44 5.4609 44 7.5C44 9.5391 35.8193 12.5 23 12.5C10.1807 12.5 2 9.5391 2 7.5C2 5.4609 10.1807 2.5 23 2.5ZM23 54.5C10.1807 54.5 2 51.5391 2 49.5V38.5413C5.7966 41.1505 14.4374 42.5 23 42.5C31.5626 42.5 40.2034 41.1505 44 38.5413V49.5C44 51.5391 35.8193 54.5 23 54.5ZM40 17.5C40 17.3022 40.0586 17.1089 40.1685 16.9444C40.2784 16.78 40.4346 16.6518 40.6173 16.5761C40.8 16.5004 41.0011 16.4806 41.1951 16.5192C41.3891 16.5578 41.5673 16.653 41.7071 16.7929C41.847 16.9327 41.9422 17.1109 41.9808 17.3049C42.0194 17.4989 41.9996 17.7 41.9239 17.8827C41.8482 18.0654 41.72 18.2216 41.5556 18.3315C41.3911 18.4414 41.1978 18.5 41 18.5C40.7348 18.5 40.4804 18.3946 40.2929 18.2071C40.1054 18.0196 40 17.7652 40 17.5ZM40 31.5C40 31.3022 40.0586 31.1089 40.1685 30.9444C40.2784 30.78 40.4346 30.6518 40.6173 30.5761C40.8 30.5004 41.0011 30.4806 41.1951 30.5192C41.3891 30.5578 41.5673 30.653 41.7071 30.7929C41.847 30.9327 41.9422 31.1109 41.9808 31.3049C42.0194 31.4989 41.9996 31.7 41.9239 31.8827C41.8482 32.0654 41.72 32.2216 41.5556 32.3315C41.3911 32.4414 41.1978 32.5 41 32.5C40.7348 32.5 40.4804 32.3946 40.2929 32.2071C40.1054 32.0196 40 31.7652 40 31.5ZM42 45.5C42 45.6978 41.9414 45.8911 41.8315 46.0556C41.7216 46.22 41.5654 46.3482 41.3827 46.4239C41.2 46.4996 40.9989 46.5194 40.8049 46.4808C40.6109 46.4422 40.4327 46.347 40.2929 46.2071C40.153 46.0673 40.0578 45.8891 40.0192 45.6951C39.9806 45.5011 40.0004 45.3 40.0761 45.1173C40.1518 44.9346 40.28 44.7784 40.4444 44.6685C40.6089 44.5586 40.8022 44.5 41 44.5C41.2652 44.5 41.5196 44.6054 41.7071 44.7929C41.8946 44.9804 42 45.2348 42 45.5Z" fill="white"/>
</svg>
