<svg width="57" height="53" viewBox="0 0 57 53" fill="none" xmlns="http://www.w3.org/2000/svg">
<path d="M51.0007 40.3636C50.1163 40.3662 49.2577 40.6621 48.5596 41.205C47.8614 41.7479 47.3631 42.5071 47.1427 43.3636H45.0007V30.3636H46.0007C48.918 30.3636 51.7159 29.2046 53.7788 27.1417C55.8417 25.0788 57.0007 22.281 57.0007 19.3636C57.0007 16.4462 55.8417 13.6483 53.7788 11.5854C51.7159 9.5225 48.918 8.36357 46.0007 8.36357C45.7634 8.36357 45.5207 8.37357 45.2653 8.39357C43.9044 5.79493 41.8105 3.65306 39.2434 2.23374C36.6762 0.814415 33.7488 0.180113 30.8244 0.409539C27.9 0.638966 25.1073 1.72202 22.7929 3.52432C20.4785 5.32661 18.7442 7.76881 17.8053 10.5479C17.2116 10.4249 16.6069 10.3632 16.0007 10.3636C14.137 10.3621 12.319 10.9405 10.7988 12.0186C9.27856 13.0966 8.13138 14.6209 7.51627 16.3802C5.70556 16.5051 4.01417 17.3284 2.79888 18.6765C1.58358 20.0246 0.939411 21.792 1.00225 23.6059C1.06508 25.4198 1.83001 27.1384 3.13568 28.3992C4.44135 29.6599 6.18566 30.3642 8.00067 30.3636H13.0007V39.3636H10.8587C10.6153 38.4209 10.0364 37.5994 9.23066 37.053C8.42488 36.5066 7.44748 36.2728 6.48167 36.3955C5.51585 36.5181 4.62793 36.9888 3.98434 37.7193C3.34075 38.4498 2.98568 39.39 2.98568 40.3636C2.98568 41.3371 3.34075 42.2773 3.98434 43.0078C4.62793 43.7383 5.51585 44.209 6.48167 44.3317C7.44748 44.4544 8.42488 44.2206 9.23066 43.6742C10.0364 43.1278 10.6153 42.3062 10.8587 41.3636H14.0007C14.2659 41.3636 14.5202 41.2582 14.7078 41.0707C14.8953 40.8831 15.0007 40.6288 15.0007 40.3636V30.3636H22.0007V42.5056C21.058 42.749 20.2365 43.3278 19.6901 44.1336C19.1437 44.9394 18.9099 45.9168 19.0325 46.8826C19.1552 47.8484 19.6259 48.7363 20.3564 49.3799C21.0869 50.0235 22.0271 50.3786 23.0007 50.3786C23.9742 50.3786 24.9144 50.0235 25.6449 49.3799C26.3754 48.7363 26.8461 47.8484 26.9688 46.8826C27.0915 45.9168 26.8577 44.9394 26.3113 44.1336C25.7649 43.3278 24.9433 42.749 24.0007 42.5056V30.3636H34.0007V44.5056C33.058 44.749 32.2365 45.3278 31.6901 46.1336C31.1437 46.9394 30.9099 47.9168 31.0325 48.8826C31.1552 49.8484 31.6259 50.7363 32.3564 51.3799C33.0869 52.0235 34.0271 52.3786 35.0007 52.3786C35.9742 52.3786 36.9144 52.0235 37.6449 51.3799C38.3754 50.7363 38.8461 49.8484 38.9688 48.8826C39.0915 47.9168 38.8577 46.9394 38.3113 46.1336C37.7649 45.3278 36.9433 44.749 36.0007 44.5056V30.3636H43.0007V44.3636C43.0007 44.6288 43.106 44.8831 43.2936 45.0707C43.4811 45.2582 43.7354 45.3636 44.0007 45.3636H47.1427C47.3309 46.0863 47.718 46.7418 48.2601 47.2555C48.8021 47.7693 49.4774 48.1208 50.2092 48.27C50.9409 48.4193 51.6999 48.3603 52.3999 48.0999C53.0998 47.8394 53.7127 47.3879 54.169 46.7966C54.6252 46.2054 54.9065 45.498 54.9809 44.7549C55.0553 44.0117 54.9198 43.2626 54.5898 42.5926C54.2598 41.9226 53.7486 41.3586 53.1142 40.9646C52.4797 40.5706 51.7475 40.3623 51.0007 40.3636ZM7.00067 42.3636C6.6051 42.3636 6.21842 42.2463 5.88952 42.0265C5.56063 41.8067 5.30428 41.4944 5.15291 41.1289C5.00153 40.7635 4.96192 40.3614 5.03909 39.9734C5.11626 39.5854 5.30675 39.2291 5.58645 38.9494C5.86616 38.6697 6.22252 38.4792 6.61048 38.402C6.99845 38.3248 7.40058 38.3644 7.76603 38.5158C8.13148 38.6672 8.44384 38.9235 8.6636 39.2524C8.88337 39.5813 9.00067 39.968 9.00067 40.3636C9.00006 40.8938 8.78915 41.4022 8.41421 41.7771C8.03927 42.1521 7.53091 42.363 7.00067 42.3636ZM25.0007 46.3636C25.0007 46.7591 24.8834 47.1458 24.6636 47.4747C24.4438 47.8036 24.1315 48.06 23.766 48.2113C23.4006 48.3627 22.9984 48.4023 22.6105 48.3251C22.2225 48.248 21.8662 48.0575 21.5865 47.7778C21.3067 47.4981 21.1163 47.1417 21.0391 46.7538C20.9619 46.3658 21.0015 45.9637 21.1529 45.5982C21.3043 45.2328 21.5606 44.9204 21.8895 44.7006C22.2184 44.4809 22.6051 44.3636 23.0007 44.3636C23.5309 44.3642 24.0393 44.5751 24.4142 44.95C24.7891 45.325 25.0001 45.8333 25.0007 46.3636ZM37.0007 48.3636C37.0007 48.7591 36.8834 49.1458 36.6636 49.4747C36.4438 49.8036 36.1315 50.06 35.766 50.2113C35.4006 50.3627 34.9984 50.4023 34.6105 50.3251C34.2225 50.248 33.8662 50.0575 33.5864 49.7778C33.3067 49.4981 33.1163 49.1417 33.0391 48.7538C32.9619 48.3658 33.0015 47.9637 33.1529 47.5982C33.3043 47.2328 33.5606 46.9204 33.8895 46.7006C34.2184 46.4809 34.6051 46.3636 35.0007 46.3636C35.5309 46.3642 36.0393 46.5751 36.4142 46.95C36.7891 47.325 37.0001 47.8333 37.0007 48.3636ZM3.00067 23.3636C3.0032 22.7022 3.13649 22.0479 3.39286 21.4383C3.64923 20.8287 4.02363 20.2758 4.4945 19.8114C4.96537 19.347 5.52342 18.9803 6.13654 18.7324C6.74967 18.4845 7.40576 18.3603 8.06706 18.367H8.07297C8.13447 18.3704 8.19597 18.3734 8.26047 18.3734C8.48267 18.3734 8.69855 18.2994 8.87398 18.163C9.04942 18.0267 9.1744 17.8357 9.22917 17.6204C9.61284 16.116 10.4869 14.7825 11.7132 13.8305C12.9396 12.8785 14.4482 12.3623 16.0007 12.3636C16.7364 12.3626 17.4674 12.4803 18.1657 12.7122C18.295 12.7553 18.4319 12.7715 18.5678 12.7598C18.7037 12.7481 18.8357 12.7086 18.9558 12.6439C19.0758 12.5791 19.1813 12.4905 19.2658 12.3834C19.3503 12.2763 19.4119 12.1531 19.447 12.0213C20.1306 9.44043 21.5933 7.13313 23.6359 5.41379C25.6784 3.69445 28.2014 2.6467 30.861 2.41331C33.5207 2.17991 36.1876 2.77223 38.4984 4.10955C40.8091 5.44687 42.6514 7.46414 43.7741 9.88647C43.8646 10.0802 44.0148 10.2398 44.2027 10.3419C44.3906 10.444 44.6063 10.4833 44.8181 10.4539C45.2097 10.3967 45.6049 10.3665 46.0007 10.3636C48.3876 10.3636 50.6768 11.3118 52.3646 12.9996C54.0525 14.6874 55.0007 16.9766 55.0007 19.3636C55.0007 21.7505 54.0525 24.0397 52.3646 25.7275C50.6768 27.4154 48.3876 28.3636 46.0007 28.3636H8.00067C6.67506 28.362 5.4042 27.8347 4.46686 26.8974C3.52951 25.96 3.00223 24.6892 3.00067 23.3636ZM51.0007 46.3636C50.6051 46.3636 50.2184 46.2463 49.8895 46.0265C49.5606 45.8067 49.3043 45.4944 49.1529 45.1289C49.0015 44.7635 48.9619 44.3614 49.0391 43.9734C49.1163 43.5854 49.3067 43.2291 49.5864 42.9494C49.8662 42.6697 50.2225 42.4792 50.6105 42.402C50.9984 42.3248 51.4006 42.3644 51.766 42.5158C52.1315 42.6672 52.4438 42.9235 52.6636 43.2524C52.8834 43.5813 53.0007 43.968 53.0007 44.3636C53.0001 44.8938 52.7891 45.4022 52.4142 45.7771C52.0393 46.1521 51.5309 46.363 51.0007 46.3636Z" fill="white"/>
</svg>
