<svg width="54" height="57" viewBox="0 0 54 57" fill="none" xmlns="http://www.w3.org/2000/svg">
<path d="M13 52.5H33C33.2652 52.5 33.5196 52.3946 33.7071 52.2071C33.8946 52.0196 34 51.7652 34 51.5V47.5C34 47.2348 33.8946 46.9804 33.7071 46.7929C33.5196 46.6054 33.2652 46.5 33 46.5H13C12.7348 46.5 12.4804 46.6054 12.2929 46.7929C12.1054 46.9804 12 47.2348 12 47.5V51.5C12 51.7652 12.1054 52.0196 12.2929 52.2071C12.4804 52.3946 12.7348 52.5 13 52.5ZM14 48.5H32V50.5H14V48.5ZM5 52.5H9C9.26522 52.5 9.51957 52.3946 9.70711 52.2071C9.89464 52.0196 10 51.7652 10 51.5V47.5C10 47.2348 9.89464 46.9804 9.70711 46.7929C9.51957 46.6054 9.26522 46.5 9 46.5H5C4.73478 46.5 4.48043 46.6054 4.29289 46.7929C4.10536 46.9804 4 47.2348 4 47.5V51.5C4 51.7652 4.10536 52.0196 4.29289 52.2071C4.48043 52.3946 4.73478 52.5 5 52.5ZM6 48.5H8V50.5H6V48.5ZM45 52.5H49C49.2652 52.5 49.5196 52.3946 49.7071 52.2071C49.8946 52.0196 50 51.7652 50 51.5V47.5C50 47.2348 49.8946 46.9804 49.7071 46.7929C49.5196 46.6054 49.2652 46.5 49 46.5H45C44.7348 46.5 44.4804 46.6054 44.2929 46.7929C44.1054 46.9804 44 47.2348 44 47.5V51.5C44 51.7652 44.1054 52.0196 44.2929 52.2071C44.4804 52.3946 44.7348 52.5 45 52.5ZM46 48.5H48V50.5H46V48.5ZM5 44.5H9C9.26522 44.5 9.51957 44.3946 9.70711 44.2071C9.89464 44.0196 10 43.7652 10 43.5V39.5C10 39.2348 9.89464 38.9804 9.70711 38.7929C9.51957 38.6054 9.26522 38.5 9 38.5H5C4.73478 38.5 4.48043 38.6054 4.29289 38.7929C4.10536 38.9804 4 39.2348 4 39.5V43.5C4 43.7652 4.10536 44.0196 4.29289 44.2071C4.48043 44.3946 4.73478 44.5 5 44.5ZM6 40.5H8V42.5H6V40.5ZM13 44.5H17C17.2652 44.5 17.5196 44.3946 17.7071 44.2071C17.8946 44.0196 18 43.7652 18 43.5V39.5C18 39.2348 17.8946 38.9804 17.7071 38.7929C17.5196 38.6054 17.2652 38.5 17 38.5H13C12.7348 38.5 12.4804 38.6054 12.2929 38.7929C12.1054 38.9804 12 39.2348 12 39.5V43.5C12 43.7652 12.1054 44.0196 12.2929 44.2071C12.4804 44.3946 12.7348 44.5 13 44.5ZM14 40.5H16V42.5H14V40.5ZM21 44.5H25C25.2652 44.5 25.5196 44.3946 25.7071 44.2071C25.8946 44.0196 26 43.7652 26 43.5V39.5C26 39.2348 25.8946 38.9804 25.7071 38.7929C25.5196 38.6054 25.2652 38.5 25 38.5H21C20.7348 38.5 20.4804 38.6054 20.2929 38.7929C20.1054 38.9804 20 39.2348 20 39.5V43.5C20 43.7652 20.1054 44.0196 20.2929 44.2071C20.4804 44.3946 20.7348 44.5 21 44.5ZM22 40.5H24V42.5H22V40.5ZM29 44.5H33C33.2652 44.5 33.5196 44.3946 33.7071 44.2071C33.8946 44.0196 34 43.7652 34 43.5V39.5C34 39.2348 33.8946 38.9804 33.7071 38.7929C33.5196 38.6054 33.2652 38.5 33 38.5H29C28.7348 38.5 28.4804 38.6054 28.2929 38.7929C28.1054 38.9804 28 39.2348 28 39.5V43.5C28 43.7652 28.1054 44.0196 28.2929 44.2071C28.4804 44.3946 28.7348 44.5 29 44.5ZM30 40.5H32V42.5H30V40.5ZM37 44.5H41C41.2652 44.5 41.5196 44.3946 41.7071 44.2071C41.8946 44.0196 42 43.7652 42 43.5V39.5C42 39.2348 41.8946 38.9804 41.7071 38.7929C41.5196 38.6054 41.2652 38.5 41 38.5H37C36.7348 38.5 36.4804 38.6054 36.2929 38.7929C36.1054 38.9804 36 39.2348 36 39.5V43.5C36 43.7652 36.1054 44.0196 36.2929 44.2071C36.4804 44.3946 36.7348 44.5 37 44.5ZM38 40.5H40V42.5H38V40.5ZM37 52.5H41C41.2652 52.5 41.5196 52.3946 41.7071 52.2071C41.8946 52.0196 42 51.7652 42 51.5V47.5C42 47.2348 41.8946 46.9804 41.7071 46.7929C41.5196 46.6054 41.2652 46.5 41 46.5H37C36.7348 46.5 36.4804 46.6054 36.2929 46.7929C36.1054 46.9804 36 47.2348 36 47.5V51.5C36 51.7652 36.1054 52.0196 36.2929 52.2071C36.4804 52.3946 36.7348 52.5 37 52.5ZM38 48.5H40V50.5H38V48.5ZM45 44.5H49C49.2652 44.5 49.5196 44.3946 49.7071 44.2071C49.8946 44.0196 50 43.7652 50 43.5V39.5C50 39.2348 49.8946 38.9804 49.7071 38.7929C49.5196 38.6054 49.2652 38.5 49 38.5H45C44.7348 38.5 44.4804 38.6054 44.2929 38.7929C44.1054 38.9804 44 39.2348 44 39.5V43.5C44 43.7652 44.1054 44.0196 44.2929 44.2071C44.4804 44.3946 44.7348 44.5 45 44.5ZM46 40.5H48V42.5H46V40.5ZM5 36.5H9C9.26522 36.5 9.51957 36.3946 9.70711 36.2071C9.89464 36.0196 10 35.7652 10 35.5V31.5C10 31.2348 9.89464 30.9804 9.70711 30.7929C9.51957 30.6054 9.26522 30.5 9 30.5H5C4.73478 30.5 4.48043 30.6054 4.29289 30.7929C4.10536 30.9804 4 31.2348 4 31.5V35.5C4 35.7652 4.10536 36.0196 4.29289 36.2071C4.48043 36.3946 4.73478 36.5 5 36.5ZM6 32.5H8V34.5H6V32.5ZM13 36.5H17C17.2652 36.5 17.5196 36.3946 17.7071 36.2071C17.8946 36.0196 18 35.7652 18 35.5V31.5C18 31.2348 17.8946 30.9804 17.7071 30.7929C17.5196 30.6054 17.2652 30.5 17 30.5H13C12.7348 30.5 12.4804 30.6054 12.2929 30.7929C12.1054 30.9804 12 31.2348 12 31.5V35.5C12 35.7652 12.1054 36.0196 12.2929 36.2071C12.4804 36.3946 12.7348 36.5 13 36.5ZM14 32.5H16V34.5H14V32.5ZM21 36.5H25C25.2652 36.5 25.5196 36.3946 25.7071 36.2071C25.8946 36.0196 26 35.7652 26 35.5V31.5C26 31.2348 25.8946 30.9804 25.7071 30.7929C25.5196 30.6054 25.2652 30.5 25 30.5H21C20.7348 30.5 20.4804 30.6054 20.2929 30.7929C20.1054 30.9804 20 31.2348 20 31.5V35.5C20 35.7652 20.1054 36.0196 20.2929 36.2071C20.4804 36.3946 20.7348 36.5 21 36.5ZM22 32.5H24V34.5H22V32.5ZM29 36.5H33C33.2652 36.5 33.5196 36.3946 33.7071 36.2071C33.8946 36.0196 34 35.7652 34 35.5V31.5C34 31.2348 33.8946 30.9804 33.7071 30.7929C33.5196 30.6054 33.2652 30.5 33 30.5H29C28.7348 30.5 28.4804 30.6054 28.2929 30.7929C28.1054 30.9804 28 31.2348 28 31.5V35.5C28 35.7652 28.1054 36.0196 28.2929 36.2071C28.4804 36.3946 28.7348 36.5 29 36.5ZM30 32.5H32V34.5H30V32.5ZM37 36.5H41C41.2652 36.5 41.5196 36.3946 41.7071 36.2071C41.8946 36.0196 42 35.7652 42 35.5V31.5C42 31.2348 41.8946 30.9804 41.7071 30.7929C41.5196 30.6054 41.2652 30.5 41 30.5H37C36.7348 30.5 36.4804 30.6054 36.2929 30.7929C36.1054 30.9804 36 31.2348 36 31.5V35.5C36 35.7652 36.1054 36.0196 36.2929 36.2071C36.4804 36.3946 36.7348 36.5 37 36.5ZM38 32.5H40V34.5H38V32.5ZM45 36.5H49C49.2652 36.5 49.5196 36.3946 49.7071 36.2071C49.8946 36.0196 50 35.7652 50 35.5V31.5C50 31.2348 49.8946 30.9804 49.7071 30.7929C49.5196 30.6054 49.2652 30.5 49 30.5H45C44.7348 30.5 44.4804 30.6054 44.2929 30.7929C44.1054 30.9804 44 31.2348 44 31.5V35.5C44 35.7652 44.1054 36.0196 44.2929 36.2071C44.4804 36.3946 44.7348 36.5 45 36.5ZM46 32.5H48V34.5H46V32.5ZM53 26.5H1C0.734784 26.5 0.48043 26.6054 0.292893 26.7929C0.105357 26.9804 0 27.2348 0 27.5V55.5C0 55.7652 0.105357 56.0196 0.292893 56.2071C0.48043 56.3946 0.734784 56.5 1 56.5H53C53.2652 56.5 53.5196 56.3946 53.7071 56.2071C53.8946 56.0196 54 55.7652 54 55.5V27.5C54 27.2348 53.8946 26.9804 53.7071 26.7929C53.5196 26.6054 53.2652 26.5 53 26.5ZM52 54.5H2V28.5H52V54.5ZM27 22.5C29.1756 22.5 31.3023 21.8549 33.1113 20.6462C34.9202 19.4375 36.3301 17.7195 37.1627 15.7095C37.9952 13.6995 38.2131 11.4878 37.7886 9.35401C37.3642 7.22022 36.3166 5.26021 34.7782 3.72183C33.2398 2.18345 31.2798 1.1358 29.146 0.711367C27.0122 0.286929 24.8005 0.504766 22.7905 1.33733C20.7805 2.16989 19.0625 3.57979 17.8538 5.38873C16.6451 7.19767 16 9.32441 16 11.5C16.0033 14.4164 17.1633 17.2123 19.2255 19.2745C21.2877 21.3367 24.0836 22.4967 27 22.5ZM27 2.50001C28.78 2.50001 30.5201 3.02785 32.0001 4.01678C33.4802 5.00571 34.6337 6.41132 35.3149 8.05585C35.9961 9.70039 36.1743 11.51 35.8271 13.2558C35.4798 15.0016 34.6226 16.6053 33.364 17.864C32.1053 19.1226 30.5016 19.9798 28.7558 20.3271C27.01 20.6743 25.2004 20.4961 23.5558 19.8149C21.9113 19.1337 20.5057 17.9802 19.5168 16.5001C18.5278 15.0201 18 13.28 18 11.5C18.0026 9.11387 18.9517 6.82622 20.639 5.13897C22.3262 3.45171 24.6139 2.50265 27 2.50001ZM22.293 14.207L20.293 12.207C20.2001 12.1142 20.1264 12.004 20.0761 11.8827C20.0258 11.7614 20 11.6313 20 11.5C20 11.3687 20.0258 11.2387 20.0761 11.1173C20.1264 10.996 20.2001 10.8858 20.293 10.793L22.293 8.793C22.4816 8.61085 22.7342 8.51005 22.9964 8.51233C23.2586 8.51461 23.5094 8.61978 23.6948 8.80519C23.8802 8.99059 23.9854 9.24141 23.9877 9.5036C23.99 9.7658 23.8892 10.0184 23.707 10.207L22.4141 11.5L23.707 12.793C23.8025 12.8853 23.8787 12.9956 23.9311 13.1176C23.9835 13.2396 24.0111 13.3708 24.0123 13.5036C24.0134 13.6364 23.9881 13.7681 23.9378 13.891C23.8875 14.0139 23.8133 14.1255 23.7194 14.2194C23.6255 14.3133 23.5138 14.3875 23.391 14.4378C23.2681 14.4881 23.1364 14.5134 23.0036 14.5123C22.8708 14.5111 22.7396 14.4835 22.6176 14.4311C22.4956 14.3787 22.3852 14.3025 22.293 14.207ZM30.293 12.793L31.5859 11.5L30.293 10.207C30.1108 10.0184 30.01 9.7658 30.0123 9.5036C30.0146 9.24141 30.1198 8.99059 30.3052 8.80519C30.4906 8.61978 30.7414 8.51461 31.0036 8.51233C31.2658 8.51005 31.5184 8.61085 31.707 8.793L33.707 10.793C33.7999 10.8858 33.8736 10.996 33.9239 11.1173C33.9742 11.2387 34 11.3687 34 11.5C34 11.6313 33.9742 11.7614 33.9239 11.8827C33.8736 12.004 33.7999 12.1142 33.707 12.207L31.707 14.207C31.5184 14.3892 31.2658 14.49 31.0036 14.4877C30.7414 14.4854 30.4906 14.3802 30.3052 14.1948C30.1198 14.0094 30.0146 13.7586 30.0123 13.4964C30.01 13.2342 30.1108 12.9816 30.293 12.793ZM25.0513 14.1836L27.0513 8.18361C27.1352 7.93199 27.3156 7.72402 27.5529 7.60544C27.7901 7.48686 28.0648 7.46739 28.3164 7.5513C28.568 7.63522 28.776 7.81565 28.8946 8.0529C29.0131 8.29015 29.0326 8.56479 28.9487 8.8164L26.9487 14.8164C26.9072 14.941 26.8415 15.0562 26.7554 15.1554C26.6693 15.2546 26.5646 15.3358 26.4471 15.3946C26.3296 15.4533 26.2017 15.4883 26.0707 15.4976C25.9397 15.5069 25.8082 15.4903 25.6836 15.4487C25.559 15.4072 25.4438 15.3415 25.3446 15.2554C25.2454 15.1693 25.1642 15.0646 25.1054 14.9471C25.0467 14.8296 25.0117 14.7017 25.0024 14.5707C24.9931 14.4397 25.0098 14.3082 25.0513 14.1836Z" fill="white"/>
</svg>
