<svg width="56" height="55" viewBox="0 0 56 55" fill="none" xmlns="http://www.w3.org/2000/svg">
<path d="M53 0.5H3C2.20462 0.500873 1.44206 0.817225 0.879644 1.37964C0.317225 1.94206 0.000873479 2.70462 0 3.5V39.5C0.000873479 40.2954 0.317225 41.0579 0.879644 41.6204C1.44206 42.1828 2.20462 42.4991 3 42.5H23.8673L23.1173 48.5H18C17.7348 48.5 17.4804 48.6054 17.2929 48.7929C17.1054 48.9804 17 49.2348 17 49.5V53.5C17 53.7652 17.1054 54.0196 17.2929 54.2071C17.4804 54.3946 17.7348 54.5 18 54.5H38C38.2652 54.5 38.5196 54.3946 38.7071 54.2071C38.8946 54.0196 39 53.7652 39 53.5V49.5C39 49.2348 38.8946 48.9804 38.7071 48.7929C38.5196 48.6054 38.2652 48.5 38 48.5H32.8827L32.1327 42.5H53C53.7954 42.4991 54.5579 42.1828 55.1204 41.6204C55.6828 41.0579 55.9991 40.2954 56 39.5V3.5C55.9991 2.70462 55.6828 1.94206 55.1204 1.37964C54.5579 0.817225 53.7954 0.500873 53 0.5ZM37 52.5H19V50.5H37V52.5ZM30.8672 48.5H25.1328L25.8828 42.5H30.1172L30.8672 48.5ZM54 39.5C53.9997 39.7651 53.8942 40.0193 53.7067 40.2067C53.5193 40.3942 53.2651 40.4997 53 40.5H3C2.73489 40.4997 2.48073 40.3942 2.29327 40.2067C2.10581 40.0193 2.00034 39.7651 2 39.5V3.5C2.00034 3.23489 2.10581 2.98073 2.29327 2.79327C2.48073 2.60581 2.73489 2.50034 3 2.5H53C53.2651 2.50034 53.5193 2.60581 53.7067 2.79327C53.8942 2.98073 53.9997 3.23489 54 3.5V39.5ZM51 4.5H5C4.73478 4.5 4.48043 4.60536 4.29289 4.79289C4.10536 4.98043 4 5.23478 4 5.5V33.5C4 33.7652 4.10536 34.0196 4.29289 34.2071C4.48043 34.3946 4.73478 34.5 5 34.5H51C51.2652 34.5 51.5196 34.3946 51.7071 34.2071C51.8946 34.0196 52 33.7652 52 33.5V5.5C52 5.23478 51.8946 4.98043 51.7071 4.79289C51.5196 4.60536 51.2652 4.5 51 4.5ZM50 32.5H6V6.5H50V32.5ZM31 37.5C31 37.7652 30.8946 38.0196 30.7071 38.2071C30.5196 38.3946 30.2652 38.5 30 38.5H26C25.7348 38.5 25.4804 38.3946 25.2929 38.2071C25.1054 38.0196 25 37.7652 25 37.5C25 37.2348 25.1054 36.9804 25.2929 36.7929C25.4804 36.6054 25.7348 36.5 26 36.5H30C30.2652 36.5 30.5196 36.6054 30.7071 36.7929C30.8946 36.9804 31 37.2348 31 37.5ZM13.4 20.3C13.2758 20.2069 13.175 20.0861 13.1056 19.9472C13.0361 19.8084 13 19.6552 13 19.5C13 19.3448 13.0361 19.1916 13.1056 19.0528C13.175 18.9139 13.2758 18.7931 13.4 18.7L21.4 12.7C21.5051 12.6212 21.6246 12.5639 21.7518 12.5313C21.879 12.4987 22.0114 12.4915 22.1414 12.51C22.2714 12.5286 22.3965 12.5726 22.5095 12.6395C22.6225 12.7064 22.7212 12.7949 22.8 12.9C22.8788 13.0051 22.9361 13.1246 22.9687 13.2518C23.0013 13.379 23.0085 13.5114 22.99 13.6414C22.9714 13.7714 22.9274 13.8965 22.8605 14.0095C22.7936 14.1225 22.7051 14.2212 22.6 14.3L15.6665 19.5L22.6 24.7C22.8122 24.8591 22.9524 25.096 22.99 25.3586C23.0275 25.6211 22.9591 25.8878 22.8 26.1C22.6409 26.3122 22.404 26.4524 22.1414 26.49C21.8789 26.5275 21.6122 26.4591 21.4 26.3L13.4 20.3ZM33.4 24.7L40.3335 19.5L33.4 14.3C33.1878 14.1409 33.0476 13.904 33.0101 13.6414C32.9725 13.3789 33.0409 13.1122 33.2 12.9C33.3591 12.6878 33.596 12.5476 33.8586 12.51C34.1211 12.4725 34.3878 12.5409 34.6 12.7L42.6 18.7C42.7242 18.7931 42.825 18.9139 42.8944 19.0528C42.9639 19.1916 43 19.3448 43 19.5C43 19.6552 42.9639 19.8084 42.8944 19.9472C42.825 20.0861 42.7242 20.2069 42.6 20.3L34.6 26.3C34.3878 26.4591 34.1211 26.5275 33.8586 26.49C33.596 26.4524 33.3591 26.3122 33.2 26.1C33.0409 25.8878 32.9725 25.6211 33.0101 25.3586C33.0476 25.096 33.1878 24.8591 33.4 24.7ZM25.03 27.2571L29.03 11.2571C29.0974 11.0031 29.262 10.7858 29.4883 10.6522C29.7146 10.5187 29.9844 10.4795 30.2393 10.5433C30.4942 10.6071 30.7138 10.7687 30.8506 10.9931C30.9873 11.2175 31.0302 11.4867 30.97 11.7425L26.97 27.7425C26.9396 27.8715 26.884 27.9931 26.8062 28.1004C26.7284 28.2077 26.6301 28.2984 26.5169 28.3674C26.4038 28.4363 26.278 28.4821 26.1471 28.502C26.0161 28.522 25.8824 28.5157 25.7539 28.4835C25.6253 28.4513 25.5045 28.394 25.3983 28.3147C25.2921 28.2354 25.2028 28.1358 25.1354 28.0217C25.0681 27.9076 25.0241 27.7812 25.006 27.65C24.9879 27.5187 24.996 27.3852 25.03 27.2571Z" fill="white"/>
</svg>
