<?xml version="1.0" standalone="no"?>
<!DOCTYPE svg PUBLIC "-//W3C//DTD SVG 20010904//EN"
 "http://www.w3.org/TR/2001/REC-SVG-20010904/DTD/svg10.dtd">
<svg version="1.0" xmlns="http://www.w3.org/2000/svg"
 width="1280.000000pt" height="640.000000pt" viewBox="0 0 1280.000000 640.000000"
 preserveAspectRatio="xMidYMid meet">
<metadata>
Created by potrace 1.15, written by Peter Selinger 2001-2017
</metadata>
<g transform="translate(0.000000,640.000000) scale(0.100000,-0.100000)"
fill="#fff" stroke="none">
<path d="M2277 4816 c-74 -27 -77 -34 -77 -172 l0 -124 -1038 -1312 c-572
-722 -1045 -1323 -1053 -1336 -11 -18 -23 -22 -61 -22 l-48 0 0 -75 0 -75
1100 0 1100 0 0 -24 c0 -71 188 -109 332 -66 47 13 68 34 68 66 l0 24 3805 0
3805 0 0 -30 c0 -62 68 -93 205 -93 137 0 205 31 205 93 l0 30 1090 0 1090 0
0 75 0 75 -44 0 c-29 0 -46 5 -49 14 -5 12 -212 276 -672 856 -72 91 -200 253
-285 360 -85 107 -227 287 -317 400 -89 113 -308 390 -487 615 l-325 410 -1
121 c0 135 -2 139 -74 169 -58 24 -212 22 -270 -3 -24 -11 -49 -29 -55 -40 -6
-12 -11 -60 -11 -108 l0 -87 -42 -46 c-23 -25 -123 -129 -222 -231 -998 -1026
-1902 -1731 -2642 -2063 -512 -230 -928 -275 -1377 -152 -830 227 -1863 981
-3119 2274 l-207 213 -3 116 -3 115 -40 21 c-51 27 -219 34 -278 12z m683
-1798 l0 -1128 -180 0 -180 0 0 1313 1 1312 179 -185 179 -185 1 -1127z m7250
182 l0 -1310 -180 0 -180 0 0 1126 0 1126 177 184 c97 101 178 184 180 184 2
0 3 -589 3 -1310z m-8010 -20 l0 -1290 -180 0 -180 0 0 1068 0 1067 176 223
c97 122 178 222 180 222 2 0 4 -580 4 -1290z m8604 1055 l166 -209 0 -1068 0
-1068 -175 0 -175 0 0 1287 c0 796 4 1283 9 1278 5 -6 84 -104 175 -220z
m-7366 -555 l92 -85 0 -852 0 -853 -270 0 -270 0 0 1111 0 1112 178 -174 c98
-96 219 -212 270 -259z m6382 -680 l0 -1110 -270 0 -270 0 0 853 0 852 148
137 c81 76 201 192 267 258 66 66 121 120 122 120 2 0 3 -499 3 -1110z m1459
635 l261 -330 0 -714 0 -714 -197 6 c-108 4 -231 7 -275 7 l-78 0 0 1052 c0
916 2 1050 14 1038 8 -8 132 -163 275 -345z m-9464 -700 l0 -1045 -76 0 c-42
0 -164 -3 -272 -7 l-197 -6 0 714 0 714 267 338 c147 185 269 337 272 337 3 0
6 -470 6 -1045z m1910 485 c71 -63 185 -161 253 -218 l122 -103 0 -600 0 -599
-88 0 c-49 0 -171 -3 -270 -7 l-182 -6 0 838 c0 795 1 837 17 824 10 -8 76
-66 148 -129z m5521 -1527 c-2 -3 -124 -1 -270 3 l-266 7 0 598 0 598 122 103
c68 57 188 161 268 232 l145 128 3 -833 c1 -458 0 -834 -2 -836z m-8006 677
l0 -690 -270 0 -270 0 0 353 0 352 267 338 c147 185 269 337 270 337 2 0 3
-310 3 -690z m10609 345 l261 -330 0 -352 0 -353 -270 0 -270 0 0 692 c0 421
4 688 9 683 5 -6 127 -158 270 -340z m-7552 31 c83 -65 202 -155 264 -200 62
-44 112 -84 111 -88 -1 -5 -2 -177 -2 -383 l0 -375 -270 0 -270 0 0 586 c0
322 4 584 8 582 4 -1 76 -56 159 -122z m4383 -461 l0 -585 -275 0 -275 0 2
382 3 382 110 79 c61 44 181 135 269 203 87 68 160 124 162 124 2 0 4 -263 4
-585z m-3878 97 c82 -55 328 -204 401 -242 l47 -25 0 -207 0 -208 -275 0 -275
0 0 371 c0 325 2 370 15 365 8 -3 48 -27 87 -54z m3308 -312 l0 -370 -275 0
-275 0 2 207 3 207 145 84 c80 46 199 119 265 163 66 43 123 79 128 79 4 0 7
-166 7 -370z m-7440 -60 l0 -330 -261 0 c-143 0 -259 4 -257 8 4 10 512 652
515 652 2 0 3 -148 3 -330z m11744 -7 c135 -172 246 -315 246 -318 0 -3 -117
-5 -260 -5 l-260 0 0 332 c0 280 2 330 14 318 7 -8 124 -156 260 -327z m-7004
33 c73 -36 195 -88 271 -117 l139 -53 0 -83 0 -83 -272 2 -273 3 -3 198 c-1
108 -1 197 2 197 2 0 64 -29 136 -64z m2128 -142 l-3 -189 -270 0 -270 0 -3
81 -3 80 139 53 c76 28 197 80 268 115 71 35 132 60 137 56 4 -3 6 -92 5 -196z
m-1553 -70 c108 -26 292 -54 362 -54 41 0 43 -1 43 -30 l0 -30 -232 0 c-128 0
-250 -3 -270 -6 l-38 -7 0 83 c0 74 2 81 18 75 9 -3 62 -17 117 -31z m975 -45
l0 -82 -37 7 c-21 3 -143 6 -270 6 l-233 0 0 30 c0 29 1 30 48 30 97 1 327 40
432 74 25 8 48 14 53 15 4 1 7 -36 7 -80z m1583 -106 c917 -3 1667 -10 1667
-15 0 -4 -1713 -8 -3807 -8 -2527 0 -3804 3 -3797 10 6 6 400 11 1119 13 611
1 1569 3 2131 5 561 1 1771 -1 2687 -5z m-7930 -20 c-40 -2 -107 -2 -150 0
-43 1 -10 3 72 3 83 0 118 -2 78 -3z m1209 0 c-211 -2 -553 -2 -760 0 -207 1
-35 2 383 2 418 0 588 -1 377 -2z m9926 0 c-208 -2 -548 -2 -755 0 -208 1 -38
2 377 2 415 0 585 -1 378 -2z m605 0 c-40 -2 -106 -2 -145 0 -40 1 -8 3 72 3
80 0 112 -2 73 -3z"/>
</g>
</svg>
