<svg class="svg-icon" style="width: 1em; height: 1em;vertical-align: middle;fill: currentColor;overflow: hidden;" viewBox="0 0 1024 1024" version="1.1" xmlns="http://www.w3.org/2000/svg"><path d="M875.93 298.39h-726.2c-11.06 0-20.03-8.97-20.03-20.03v-37.15c0-11.06 8.97-20.03 20.03-20.03h726.19c11.06 0 20.03 8.97 20.03 20.03v37.15c0.01 11.06-8.96 20.03-20.02 20.03z" fill="#344FEA" /><path d="M495.96 295.63h33.74v77.83h-33.74zM179.75 295.63h33.74v77.83h-33.74zM812.16 295.63h33.74v77.83h-33.74zM654.06 295.63h33.74v77.83h-33.74zM337.85 295.63h33.74v77.83h-33.74z" fill="#344FEA" /><path d="M896.06 413.5v320.02c0 16.99-13.77 30.77-30.77 30.77h-69.07c-11.74 0-21.25-9.52-21.25-21.25V603.77c0-60.51-49.06-109.57-109.57-109.57-60.51 0-109.57 49.06-109.57 109.57v139.26c0 11.74-9.52 21.25-21.26 21.25h-43.49c-11.74 0-21.25-9.52-21.25-21.25V603.77c0-60.51-49.06-109.57-109.57-109.57-60.51 0-109.57 49.06-109.57 109.57v139.26c0 11.74-9.52 21.25-21.25 21.25h-69.07c-16.99 0-30.77-13.77-30.77-30.77V413.5c0-23.23 18.83-42.07 42.07-42.07h682.32c23.23 0 42.07 18.84 42.07 42.07z" fill="#344FEA" /></svg>