<svg width="56" height="45" viewBox="0 0 56 45" fill="white" xmlns="http://www.w3.org/2000/svg">
<path d="M55 0.437988H1C0.734784 0.437988 0.48043 0.543345 0.292893 0.730882C0.105357 0.918418 0 1.17277 0 1.43799V43.438C0 43.7032 0.105357 43.9576 0.292893 44.1451C0.48043 44.3326 0.734784 44.438 1 44.438H55C55.2652 44.438 55.5196 44.3326 55.7071 44.1451C55.8946 43.9576 56 43.7032 56 43.438V1.43799C56 1.17277 55.8946 0.918418 55.7071 0.730882C55.5196 0.543345 55.2652 0.437988 55 0.437988ZM54 2.43799V8.43799H2V2.43799H54ZM2 42.438V10.438H54V42.438H2ZM4 5.43799C4 5.24021 4.05865 5.04687 4.16853 4.88242C4.27841 4.71797 4.43459 4.5898 4.61732 4.51411C4.80004 4.43842 5.00111 4.41862 5.19509 4.4572C5.38907 4.49579 5.56725 4.59103 5.70711 4.73088C5.84696 4.87073 5.9422 5.04892 5.98079 5.2429C6.01937 5.43688 5.99957 5.63795 5.92388 5.82067C5.84819 6.0034 5.72002 6.15958 5.55557 6.26946C5.39112 6.37934 5.19778 6.43799 5 6.43799C4.73478 6.43799 4.48043 6.33263 4.29289 6.14509C4.10536 5.95756 4 5.7032 4 5.43799ZM8 5.43799C8 5.24021 8.05865 5.04687 8.16853 4.88242C8.27841 4.71797 8.43459 4.5898 8.61732 4.51411C8.80004 4.43842 9.00111 4.41862 9.19509 4.4572C9.38907 4.49579 9.56725 4.59103 9.70711 4.73088C9.84696 4.87073 9.9422 5.04892 9.98079 5.2429C10.0194 5.43688 9.99957 5.63795 9.92388 5.82067C9.84819 6.0034 9.72002 6.15958 9.55557 6.26946C9.39112 6.37934 9.19778 6.43799 9 6.43799C8.73478 6.43799 8.48043 6.33263 8.29289 6.14509C8.10536 5.95756 8 5.7032 8 5.43799ZM12 5.43799C12 5.24021 12.0586 5.04687 12.1685 4.88242C12.2784 4.71797 12.4346 4.5898 12.6173 4.51411C12.8 4.43842 13.0011 4.41862 13.1951 4.4572C13.3891 4.49579 13.5673 4.59103 13.7071 4.73088C13.847 4.87073 13.9422 5.04892 13.9808 5.2429C14.0194 5.43688 13.9996 5.63795 13.9239 5.82067C13.8482 6.0034 13.72 6.15958 13.5556 6.26946C13.3911 6.37934 13.1978 6.43799 13 6.43799C12.7348 6.43799 12.4804 6.33263 12.2929 6.14509C12.1054 5.95756 12 5.7032 12 5.43799ZM28 5.43799C28 5.17277 28.1054 4.91842 28.2929 4.73088C28.4804 4.54335 28.7348 4.43799 29 4.43799H51C51.2652 4.43799 51.5196 4.54335 51.7071 4.73088C51.8946 4.91842 52 5.17277 52 5.43799C52 5.7032 51.8946 5.95756 51.7071 6.14509C51.5196 6.33263 51.2652 6.43799 51 6.43799H29C28.7348 6.43799 28.4804 6.33263 28.2929 6.14509C28.1054 5.95756 28 5.7032 28 5.43799ZM15.5352 26.3164L15.4141 26.438L15.5352 26.5596C16.0009 27.0227 16.3702 27.5737 16.6216 28.1804C16.8731 28.7872 17.0017 29.4379 17 30.0947V34.438C17.0002 34.7031 17.1057 34.9573 17.2932 35.1448C17.4806 35.3323 17.7349 35.4378 18 35.438H20C20.2652 35.438 20.5196 35.5433 20.7071 35.7309C20.8946 35.9184 21 36.1728 21 36.438C21 36.7032 20.8946 36.9576 20.7071 37.1451C20.5196 37.3326 20.2652 37.438 20 37.438H18C17.2046 37.4371 16.4421 37.1208 15.8796 36.5583C15.3172 35.9959 15.0009 35.2334 15 34.438V30.0947C14.9977 29.2995 14.6819 28.5373 14.1211 27.9736L13.293 27.145C13.2001 27.0522 13.1264 26.942 13.0761 26.8206C13.0258 26.6993 13 26.5693 13 26.438C13 26.3067 13.0258 26.1766 13.0761 26.0553C13.1264 25.934 13.2001 25.8238 13.293 25.731L14.1211 24.9024C14.6819 24.3386 14.9977 23.5765 15 22.7813V18.438C15.0009 17.6426 15.3172 16.8801 15.8796 16.3176C16.4421 15.7552 17.2046 15.4389 18 15.438H20C20.2652 15.438 20.5196 15.5433 20.7071 15.7309C20.8946 15.9184 21 16.1728 21 16.438C21 16.7032 20.8946 16.9576 20.7071 17.1451C20.5196 17.3326 20.2652 17.438 20 17.438H18C17.7349 17.4382 17.4806 17.5437 17.2932 17.7311C17.1057 17.9186 17.0002 18.1728 17 18.438V22.7813C17.0017 23.4381 16.8731 24.0887 16.6216 24.6955C16.3702 25.3023 16.0009 25.8532 15.5352 26.3164ZM42.707 25.731C42.7999 25.8238 42.8736 25.934 42.9239 26.0553C42.9742 26.1766 43 26.3067 43 26.438C43 26.5693 42.9742 26.6993 42.9239 26.8206C42.8736 26.942 42.7999 27.0522 42.707 27.145L41.8789 27.9736C41.3181 28.5373 41.0023 29.2995 41 30.0947V34.438C40.9991 35.2334 40.6828 35.9959 40.1204 36.5583C39.5579 37.1208 38.7954 37.4371 38 37.438H36C35.7348 37.438 35.4804 37.3326 35.2929 37.1451C35.1054 36.9576 35 36.7032 35 36.438C35 36.1728 35.1054 35.9184 35.2929 35.7309C35.4804 35.5433 35.7348 35.438 36 35.438H38C38.2651 35.4378 38.5194 35.3323 38.7068 35.1448C38.8943 34.9573 38.9998 34.7031 39 34.438V30.0947C38.9983 29.4379 39.1269 28.7872 39.3784 28.1804C39.6298 27.5737 39.9991 27.0227 40.4648 26.5596L40.5859 26.438L40.4648 26.3164C39.9991 25.8532 39.6298 25.3023 39.3784 24.6955C39.1269 24.0887 38.9983 23.4381 39 22.7813V18.438C38.9998 18.1728 38.8943 17.9186 38.7068 17.7311C38.5194 17.5437 38.2651 17.4382 38 17.438H36C35.7348 17.438 35.4804 17.3326 35.2929 17.1451C35.1054 16.9576 35 16.7032 35 16.438C35 16.1728 35.1054 15.9184 35.2929 15.7309C35.4804 15.5433 35.7348 15.438 36 15.438H38C38.7954 15.4389 39.5579 15.7552 40.1204 16.3176C40.6828 16.8801 40.9991 17.6426 41 18.438V22.7813C41.0023 23.5765 41.3181 24.3386 41.8789 24.9024L42.707 25.731ZM25 32.438C25 32.6358 24.9414 32.8291 24.8315 32.9936C24.7216 33.158 24.5654 33.2862 24.3827 33.3619C24.2 33.4376 23.9989 33.4574 23.8049 33.4188C23.6109 33.3802 23.4327 33.2849 23.2929 33.1451C23.153 33.0052 23.0578 32.8271 23.0192 32.6331C22.9806 32.4391 23.0004 32.238 23.0761 32.0553C23.1518 31.8726 23.28 31.7164 23.4444 31.6065C23.6089 31.4966 23.8022 31.438 24 31.438C24.2652 31.438 24.5196 31.5433 24.7071 31.7309C24.8946 31.9184 25 32.1728 25 32.438ZM29 32.438C29 32.6358 28.9414 32.8291 28.8315 32.9936C28.7216 33.158 28.5654 33.2862 28.3827 33.3619C28.2 33.4376 27.9989 33.4574 27.8049 33.4188C27.6109 33.3802 27.4327 33.2849 27.2929 33.1451C27.153 33.0052 27.0578 32.8271 27.0192 32.6331C26.9806 32.4391 27.0004 32.238 27.0761 32.0553C27.1518 31.8726 27.28 31.7164 27.4444 31.6065C27.6089 31.4966 27.8022 31.438 28 31.438C28.2652 31.438 28.5196 31.5433 28.7071 31.7309C28.8946 31.9184 29 32.1728 29 32.438ZM33 32.438C33 32.6358 32.9414 32.8291 32.8315 32.9936C32.7216 33.158 32.5654 33.2862 32.3827 33.3619C32.2 33.4376 31.9989 33.4574 31.8049 33.4188C31.6109 33.3802 31.4327 33.2849 31.2929 33.1451C31.153 33.0052 31.0578 32.8271 31.0192 32.6331C30.9806 32.4391 31.0004 32.238 31.0761 32.0553C31.1518 31.8726 31.28 31.7164 31.4444 31.6065C31.6089 31.4966 31.8022 31.438 32 31.438C32.2652 31.438 32.5196 31.5433 32.7071 31.7309C32.8946 31.9184 33 32.1728 33 32.438Z" fill="white"/>
</svg>
