<svg width="39" height="53" viewBox="0 0 39 53" fill="none" xmlns="http://www.w3.org/2000/svg">
<path d="M19.4923 12.4136C18.0769 12.4136 16.6933 12.8371 15.5164 13.6307C14.3396 14.4243 13.4223 15.5523 12.8807 16.872C12.339 18.1917 12.1973 19.6438 12.4734 21.0448C12.7496 22.4458 13.4311 23.7327 14.432 24.7428C15.4328 25.7528 16.7079 26.4407 18.0961 26.7193C19.4843 26.998 20.9232 26.855 22.2309 26.3083C23.5385 25.7617 24.6562 24.836 25.4425 23.6483C26.2289 22.4606 26.6486 21.0643 26.6486 19.6358C26.6464 17.721 25.8918 15.8853 24.5502 14.5313C23.2086 13.1774 21.3896 12.4157 19.4923 12.4136ZM19.4923 23.247C18.7846 23.247 18.0928 23.0352 17.5043 22.6384C16.9159 22.2416 16.4573 21.6776 16.1865 21.0178C15.9157 20.3579 15.8448 19.6318 15.9829 18.9313C16.1209 18.2308 16.4617 17.5874 16.9621 17.0824C17.4625 16.5773 18.1001 16.2334 18.7942 16.0941C19.4883 15.9547 20.2077 16.0263 20.8616 16.2996C21.5154 16.5729 22.0742 17.0357 22.4674 17.6296C22.8606 18.2234 23.0704 18.9216 23.0704 19.6358C23.0693 20.5932 22.692 21.5111 22.0212 22.1881C21.3504 22.8651 20.4409 23.2459 19.4923 23.247Z" fill="#5B4DFF"/>
<path d="M33.2442 5.74681C29.8441 2.31627 25.3055 0.278394 20.5041 0.0264872C15.7028 -0.22542 10.9792 1.3265 7.24497 4.38273C3.51075 7.43896 1.03065 11.7828 0.283313 16.576C-0.464021 21.3691 0.574397 26.2718 3.19815 30.3377L16.7177 51.2837C17.0185 51.7498 17.4299 52.1328 17.9145 52.3979C18.3991 52.6629 18.9415 52.8018 19.4927 52.8018C20.0439 52.8018 20.5864 52.6629 21.0709 52.3979C21.5555 52.1328 21.9669 51.7498 22.2677 51.2837L35.7877 30.3377C38.2223 26.5659 39.2982 22.0643 38.8351 17.5872C38.372 13.1102 36.3981 8.92978 33.2442 5.74681ZM32.7897 28.3665L19.4928 48.967L6.19576 28.3665C2.1256 22.0607 2.99856 13.6219 8.27143 8.30022C9.74502 6.81301 11.4944 5.63328 13.4198 4.8284C15.3452 4.02352 17.4088 3.60926 19.4928 3.60926C21.5768 3.60926 23.6404 4.02352 25.5657 4.8284C27.4911 5.63328 29.2405 6.81301 30.7141 8.30022C35.987 13.6219 36.8598 22.0607 32.7897 28.3665Z" fill="#5B4DFF"/>
</svg>
