<svg width="32" height="32" viewBox="0 0 32 32" fill="none" xmlns="http://www.w3.org/2000/svg">
<path d="M29.0031 7.94689C28.0469 8.35939 27.0062 8.65626 25.9344 8.77189C27.0472 8.11075 27.8806 7.06626 28.2781 5.83439C27.2339 6.4556 26.0899 6.89121 24.8969 7.12189C24.3983 6.58885 23.7952 6.1642 23.1253 5.87441C22.4554 5.58462 21.733 5.4359 21.0031 5.43751C18.05 5.43751 15.675 7.83126 15.675 10.7688C15.675 11.1813 15.725 11.5938 15.8063 11.9906C11.3844 11.7594 7.44063 9.64689 4.81875 6.41251C4.34102 7.2285 4.09067 8.15759 4.09375 9.10314C4.09375 10.9531 5.03437 12.5844 6.46875 13.5438C5.62345 13.5105 4.79795 13.2781 4.05938 12.8656V12.9313C4.05938 15.5219 5.89063 17.6688 8.33125 18.1625C7.873 18.2815 7.40158 18.3424 6.92813 18.3438C6.58125 18.3438 6.25312 18.3094 5.92187 18.2625C6.59687 20.375 8.5625 21.9094 10.9031 21.9594C9.07187 23.3938 6.77813 24.2375 4.2875 24.2375C3.84063 24.2375 3.42812 24.2219 3 24.1719C5.3625 25.6875 8.16562 26.5625 11.1844 26.5625C20.9844 26.5625 26.3469 18.4438 26.3469 11.3969C26.3469 11.1656 26.3469 10.9344 26.3312 10.7031C27.3687 9.94376 28.2781 9.00314 29.0031 7.94689Z" fill="white"/>
</svg>
