<svg width="50" height="50" viewBox="0 0 50 50" fill="none" xmlns="http://www.w3.org/2000/svg">
<g opacity="0.5">
<path d="M10.4167 4.16663C8.11875 4.16663 6.25 6.03538 6.25 8.33329V33.3333C6.25 35.6312 8.11875 37.5 10.4167 37.5H17.8875L25 44.6125L32.1125 37.5H39.5833C41.8812 37.5 43.75 35.6312 43.75 33.3333V8.33329C43.75 6.03538 41.8812 4.16663 39.5833 4.16663H10.4167ZM39.5833 33.3333H30.3875L25 38.7208L19.6125 33.3333H10.4167V8.33329H39.5833V33.3333Z" fill="white"/>
<path d="M14.584 14.5834H35.4173V18.75H14.584V14.5834ZM14.584 22.9167H29.1673V27.0834H14.584V22.9167Z" fill="white"/>
</g>
</svg>
