<svg width="52" height="52" viewBox="0 0 52 52" fill="none" xmlns="http://www.w3.org/2000/svg">
<path d="M45.5007 8.66669H4.33398V13H9.31732L16.4283 32.5542C16.8868 33.8063 17.7181 34.8878 18.8102 35.6529C19.9023 36.4181 21.2027 36.83 22.5362 36.8334H41.1673V32.5H22.5362C21.6283 32.5 20.8093 31.9259 20.4995 31.0744L19.4422 28.1667H39.5337C41.462 28.1667 43.1737 26.871 43.7002 25.0229L47.585 11.4292C47.6759 11.1067 47.6909 10.7675 47.629 10.4382C47.5671 10.1089 47.4298 9.79841 47.228 9.53094C47.0262 9.26347 46.7653 9.04628 46.4656 8.89636C46.166 8.74643 45.8357 8.66783 45.5007 8.66669ZM39.5337 23.8334H17.867L13.928 13H42.6298L39.5337 23.8334Z" fill="white"/>
<path d="M22.75 45.5C24.5449 45.5 26 44.0449 26 42.25C26 40.4551 24.5449 39 22.75 39C20.9551 39 19.5 40.4551 19.5 42.25C19.5 44.0449 20.9551 45.5 22.75 45.5Z" fill="white"/>
<path d="M35.75 45.5C37.5449 45.5 39 44.0449 39 42.25C39 40.4551 37.5449 39 35.75 39C33.9551 39 32.5 40.4551 32.5 42.25C32.5 44.0449 33.9551 45.5 35.75 45.5Z" fill="white"/>
</svg>
