<svg width="54" height="54" viewBox="0 0 54 54" fill="none" xmlns="http://www.w3.org/2000/svg">
<g opacity="0.5">
<path d="M37.6875 4.5H15.1875C12.7057 4.5 10.6875 6.51825 10.6875 9V45C10.6875 47.4818 12.7057 49.5 15.1875 49.5H37.6875C40.1693 49.5 42.1875 47.4818 42.1875 45V9C42.1875 6.51825 40.1693 4.5 37.6875 4.5ZM15.1875 45V9H37.6875L37.692 45H15.1875Z" fill="white"/>
<path d="M26.4375 42.75C27.6801 42.75 28.6875 41.7426 28.6875 40.5C28.6875 39.2574 27.6801 38.25 26.4375 38.25C25.1949 38.25 24.1875 39.2574 24.1875 40.5C24.1875 41.7426 25.1949 42.75 26.4375 42.75Z" fill="white"/>
</g>
</svg>
