<svg width="51" height="51" viewBox="0 0 51 51" fill="none" xmlns="http://www.w3.org/2000/svg">
<g opacity="0.5">
<path d="M25.4469 46.75H25.5C33.7004 46.75 40.375 40.0775 40.375 31.875V19.125C40.375 10.9629 33.7301 4.30525 25.5404 4.25H25.4129C17.2529 4.29675 10.625 10.9586 10.625 19.125V31.875C10.625 40.0775 17.2741 46.75 25.4469 46.75ZM14.875 19.125C14.8789 16.3138 15.9952 13.6184 17.98 11.6276C19.9649 9.63674 22.6569 8.51235 25.4681 8.5C31.3438 8.51275 36.125 13.2791 36.125 19.125V31.875C36.125 37.7336 31.3586 42.5 25.5 42.5H25.4469C19.5203 42.5 14.875 37.8335 14.875 31.875V19.125Z" fill="white"/>
<path d="M23.375 12.75H27.625V25.5H23.375V12.75Z" fill="white"/>
</g>
</svg>
