<svg width="64" height="64" viewBox="0 0 64 64" fill="none" xmlns="http://www.w3.org/2000/svg">
<g id="carbon:3d-software" opacity="0.5">
<path id="Vector" d="M42.9804 26.2299L24.9804 16.2299C24.6764 16.0544 24.3315 15.962 23.9804 15.962C23.6293 15.962 23.2844 16.0544 22.9804 16.2299L4.9804 26.2299C4.67557 26.4124 4.42439 26.6723 4.25229 26.9831C4.08019 27.2939 3.9933 27.6447 4.0004 27.9999V47.9899C4.003 48.3463 4.10078 48.6955 4.28363 49.0014C4.46647 49.3074 4.72774 49.5589 5.0404 49.7299L23.0404 59.7299C23.3326 59.8992 23.6628 59.9921 24.0004 59.9999C24.3442 59.9911 24.6806 59.8984 24.9804 59.7299L42.9804 49.7299C43.289 49.5584 43.5462 49.3076 43.7255 49.0035C43.9048 48.6994 43.9997 48.353 44.0004 47.9999V27.9999C44.0035 27.6408 43.9105 27.2873 43.7312 26.9762C43.5519 26.665 43.2927 26.4074 42.9804 26.2299ZM22.0004 54.5899L8.0004 46.8099V31.3699L22.0004 39.1499V54.5899ZM24.0004 35.6899L10.1204 27.9999L24.0004 20.2699L37.8804 27.9899L24.0004 35.6899ZM40.0004 46.8099L26.0004 54.5899V39.1499L40.0004 31.3699V46.8099Z" fill="white"/>
<path id="Vector_2" d="M60 12H52V4H48V12H40V16H48V24H52V16H60V12Z" fill="white"/>
</g>
</svg>
