<svg width="32" height="32" viewBox="0 0 32 32" fill="none" xmlns="http://www.w3.org/2000/svg">
<path d="M29.0012 7.94689C28.0449 8.35939 27.0043 8.65626 25.9324 8.77189C27.0453 8.11075 27.8786 7.06626 28.2762 5.83439C27.2319 6.4556 26.0879 6.89121 24.8949 7.12189C24.3963 6.58885 23.7933 6.1642 23.1234 5.87441C22.4535 5.58462 21.7311 5.4359 21.0012 5.43751C18.048 5.43751 15.673 7.83126 15.673 10.7688C15.673 11.1813 15.723 11.5938 15.8043 11.9906C11.3824 11.7594 7.43867 9.64689 4.8168 6.41251C4.33906 7.2285 4.08871 8.15759 4.0918 9.10314C4.0918 10.9531 5.03242 12.5844 6.4668 13.5438C5.6215 13.5105 4.79599 13.2781 4.05742 12.8656V12.9313C4.05742 15.5219 5.88867 17.6688 8.3293 18.1625C7.87104 18.2815 7.39963 18.3424 6.92617 18.3438C6.5793 18.3438 6.25117 18.3094 5.91992 18.2625C6.59492 20.375 8.56055 21.9094 10.9012 21.9594C9.06992 23.3938 6.77617 24.2375 4.28555 24.2375C3.83867 24.2375 3.42617 24.2219 2.99805 24.1719C5.36055 25.6875 8.16367 26.5625 11.1824 26.5625C20.9824 26.5625 26.3449 18.4438 26.3449 11.3969C26.3449 11.1656 26.3449 10.9344 26.3293 10.7031C27.3668 9.94376 28.2762 9.00314 29.0012 7.94689Z" fill="black"/>
</svg>
